HIERARCHY
ROOT Hips
{
  OFFSET 1.44925e-005 102.336 -0.101585
  CHANNELS 6 Xposition Yposition Zposition Zrotation Xrotation Yrotation
  JOINT LeftUpLeg
  {
    OFFSET 8.9458 -8.66707 0.101652
    CHANNELS 3 Zrotation Xrotation Yrotation
    JOINT LeftLeg
    {
      OFFSET 0 -44.4227 1.3727
      CHANNELS 3 Zrotation Xrotation Yrotation
      JOINT LeftFoot
      {
        OFFSET -0.253549 -42.0924 -1.46059
        CHANNELS 3 Zrotation Xrotation Yrotation
        JOINT LeftToes
        {
          OFFSET -0.04 -4.41509 8.4991
          CHANNELS 3 Zrotation Xrotation Yrotation
          End Site
          {
            OFFSET 0.08 -0.047448 9.77979
          }
        }
      }
    }
  }
  JOINT Spine
  {
    OFFSET 0 11.8905 0
    CHANNELS 3 Zrotation Xrotation Yrotation
    JOINT Spine1
    {
      OFFSET 0 25.6574 0.127663
      CHANNELS 3 Zrotation Xrotation Yrotation
      JOINT RightShoulder
      {
        OFFSET -8.99 -0.362252 -0.22
        CHANNELS 3 Zrotation Xrotation Yrotation
        JOINT RightArm
        {
          OFFSET -10.2827 -0.00338 0.322123
          CHANNELS 3 Zrotation Xrotation Yrotation
          JOINT RightForeArm
          {
            OFFSET -26.364 0.099144 -1.42434
            CHANNELS 3 Zrotation Xrotation Yrotation
            JOINT RightHand
            {
              OFFSET -22.0324 0.085362 1.02216
              CHANNELS 3 Zrotation Xrotation Yrotation
              End Site
              {
                OFFSET -13.3284 -0.6 1.50291
              }
            }
          }
        }
      }
      JOINT LeftShoulder1
      {
        OFFSET 8.99 -0.362252 -0.22
        CHANNELS 3 Zrotation Xrotation Yrotation
        JOINT LeftArm
        {
          OFFSET 10.2827 -0.00337999 0.322123
          CHANNELS 3 Zrotation Xrotation Yrotation
          JOINT LeftForeArm
          {
            OFFSET 26.2597 0.099144 -1.42434
            CHANNELS 3 Zrotation Xrotation Yrotation
            JOINT LeftHand
            {
              OFFSET 22.0902 0.085362 1.02216
              CHANNELS 3 Zrotation Xrotation Yrotation
              End Site
              {
                OFFSET 13.419 -0.6 1.50291
              }
            }
          }
        }
      }
      JOINT Head
      {
        OFFSET 0 8.73416 0.011341
        CHANNELS 3 Zrotation Xrotation Yrotation
        End Site
        {
          OFFSET -0.29 12.7742 2.51395
        }
      }
    }
  }
  JOINT RightUpLeg
  {
    OFFSET -8.9458 -8.66707 0.101652
    CHANNELS 3 Zrotation Xrotation Yrotation
    JOINT RightLeg
    {
      OFFSET 0 -44.4227 1.3727
      CHANNELS 3 Zrotation Xrotation Yrotation
      JOINT RightFoot
      {
        OFFSET 0.253549 -42.0924 -1.46059
        CHANNELS 3 Zrotation Xrotation Yrotation
        JOINT RightToes
        {
          OFFSET 0.04 -4.41509 8.4991
          CHANNELS 3 Zrotation Xrotation Yrotation
          End Site
          {
            OFFSET -0.08 -0.137448 9.77979
          }
        }
      }
    }
  }
}
MOTION
Frames:	12
Frame Time:	0.0333333
14.8224 100.739 -1.38721 -2.30249 -1.23885 -86.6321 -3.70215 -8.26391 -6.01631 1.71971 53.2288 21.6201 -8.72487 -14.1119 -0.430502 -1.37356e-009 8.75196e-006 -1.47123e-008 5.71728 14.8646 -1.23291 -1.23279 -1.97849 0.114163 36.6516 1.78073 0.135947 38.7211 -4.44306 2.8065 2.93617 23.232 20.116 -5.39339 9.72057 -1.055 -44.1703 3.52831 -3.44023 -29.413 -13.7361 4.72022 1.47863 29.8568 -23.2201 5.82328 9.61819 -0.917488 -0.063614 -18.3279 -7.5387 -1.65311 -10.329 -7.15636 4.54991 15.8868 -20.3135 0.901705 -10.4831 -0.167777 0.0462048 0.000530889 0.662642 
16.74 100.593 -1.11439 -2.16503 -1.13822 -86.6313 -3.47823 -5.65797 -5.58204 1.69093 52.6129 21.5525 -9.27392 -14.2669 -0.474263 -1.37356e-009 8.75196e-006 -1.47123e-008 5.72338 14.7776 -1.36369 -1.25966 -1.93674 0.00600003 36.5721 1.78056 0.142393 38.7633 -4.05036 3.18338 2.76845 22.7502 20.6563 -5.51135 9.71227 -0.954325 -43.9887 3.50936 -3.43016 -29.6196 -13.6053 4.43455 1.97891 29.8331 -24.1286 5.82328 9.61819 -0.917488 0.0481049 -18.3445 -7.45637 -1.80059 -11.6836 -6.98964 4.60311 15.6884 -20.6797 0.516241 -9.07389 -0.174719 0.0462048 0.000530889 0.662642 
18.7373 100.4 -0.792638 -2.04722 -0.96274 -86.6401 -3.11639 -3.15126 -4.76796 1.62656 51.1161 21.354 -9.49137 -14.7324 -0.523591 -1.37356e-009 8.75196e-006 -1.47123e-008 5.75408 14.661 -1.42319 -1.26607 -1.84589 -0.0595389 36.4444 1.78044 0.150898 38.8014 -4.03828 3.49757 2.69251 22.1582 21.175 -5.48207 9.70924 -0.847501 -43.905 3.49965 -3.42359 -29.7469 -13.6869 4.04567 2.52494 30.0256 -25.2764 5.82328 9.61819 -0.917488 0.122914 -18.3933 -7.45394 -1.88173 -13.0069 -6.73948 4.63585 15.3399 -21.0749 0.212636 -7.67107 -0.171959 0.0462048 0.000530889 0.662642 
20.8442 100.126 -0.429583 -1.94794 -0.777447 -86.6623 -2.79916 -0.673162 -3.92157 1.50915 48.3161 20.7393 -9.30611 -15.1272 -0.542717 -1.37356e-009 8.75196e-006 -1.47123e-008 5.67282 14.5426 -1.39878 -1.12654 -1.73518 -0.0909232 36.3336 1.78037 0.15987 38.7587 -4.26156 3.78031 2.71457 21.6097 21.5602 -5.57838 9.70321 -0.787924 -43.9056 3.49975 -3.4231 -29.8074 -14.1682 3.63047 3.02574 30.47 -26.545 5.82328 9.61819 -0.917488 0.17693 -18.4411 -7.47248 -1.9811 -14.4232 -6.49338 4.6399 15.0648 -21.3902 -0.0900271 -6.32338 -0.161712 0.0462048 0.000530889 0.662642 
23.0567 99.8042 -0.0259649 -1.90989 -0.60323 -86.6352 -2.62547 1.89707 -3.4483 1.35458 43.863 19.9451 -9.56467 -15.1736 -0.56316 -1.37356e-009 8.75196e-006 -1.47123e-008 5.50296 14.3768 -1.35262 -1.00417 -1.56405 -0.13631 36.2654 1.78034 0.166596 38.6758 -4.47328 4.04129 2.71692 21.2427 21.9102 -5.73655 9.69697 -0.811382 -43.8752 3.49633 -3.41929 -29.9165 -14.7786 3.21784 3.54647 30.9374 -27.8708 5.82328 9.61819 -0.917488 0.308946 -18.4179 -7.41078 -2.16626 -15.7733 -6.33732 4.70985 14.6738 -21.7383 -0.481534 -4.66111 -0.139047 0.0462048 0.000530889 0.662642 
25.3568 99.4824 0.428472 -2.00249 -0.415927 -86.508 -2.52491 4.599 -3.21226 1.21554 37.9969 19.4554 -10.8534 -15.8176 -0.712748 -1.37356e-009 8.75196e-006 -1.47123e-008 5.30545 14.2203 -1.33108 -1.04663 -1.42035 -0.230057 36.2158 1.78038 0.170951 38.5741 -4.56876 4.18407 2.62227 21.0604 22.4434 -5.69728 9.69372 -0.850208 -43.7867 3.48654 -3.41565 -30.0759 -15.4297 2.82744 4.26019 31.6001 -29.3273 5.82328 9.61819 -0.917488 0.521451 -18.1695 -7.32125 -2.42834 -16.7309 -6.24675 4.88268 13.715 -22.2012 -0.754317 -2.69542 -0.106482 0.0462048 0.000530889 0.662642 
27.832 99.1109 0.946144 -2.2525 -0.280442 -86.3264 -2.57775 7.10677 -2.66841 1.12722 31.8095 19.3784 -12.0666 -18.4301 -1.06861 -1.37356e-009 8.75196e-006 -1.47123e-008 4.98586 14.3451 -1.33635 -1.11892 -1.46398 -0.365989 36.2208 1.78047 0.173103 38.3897 -4.70087 4.2139 2.44955 21.1532 23.1962 -5.57805 9.69198 -0.799189 -43.7257 3.48131 -3.4129 -30.1808 -16.1143 2.50437 5.24519 32.484 -31.067 5.82328 9.61819 -0.917488 0.747922 -17.6914 -7.30333 -2.79009 -17.4409 -6.17648 4.99463 12.4162 -22.686 -0.642248 -0.862656 -0.0890856 0.0462048 0.000530889 0.662642 
30.6144 98.6166 1.50915 -2.58833 -0.430855 -86.1651 -3.13693 8.74948 -1.59484 1.08267 26.7018 19.5194 -11.3561 -22.7067 -1.41166 -1.37356e-009 8.75196e-006 -1.47123e-008 4.22453 14.8939 -1.33379 -1.02335 -1.59879 -0.528956 36.319 1.78063 0.172678 38.1861 -5.1248 4.33244 2.18283 21.6765 24.0939 -5.64043 9.69127 -0.692126 -43.7172 3.48112 -3.40834 -30.1727 -16.8774 2.19412 6.4176 33.3746 -33.1719 5.82328 9.61819 -0.917488 1.03718 -17.3265 -7.31629 -3.45995 -18.3971 -6.23802 4.89234 11.4628 -23.1785 0.0527746 0.824005 -0.121124 0.0462048 0.000530889 0.662642 
33.6792 98.083 2.055 -2.87711 -1.08104 -85.9801 -4.37071 9.02096 -0.355389 1.08374 23.5332 19.6757 -8.60915 -26.594 -1.33425 -1.37356e-009 8.75196e-006 -1.47123e-008 2.66315 15.6328 -1.28206 -0.716744 -1.59198 -0.738416 36.4654 1.78086 0.166921 38.1808 -5.93001 4.5953 1.74082 22.522 25.2021 -5.76821 9.69114 -0.669276 -43.7032 3.47539 -3.40484 -30.0577 -17.6124 1.7735 7.62763 34.0923 -35.4812 5.82328 9.61819 -0.917488 1.46435 -17.3743 -7.30172 -4.6857 -19.5468 -6.61783 4.62708 10.6794 -23.7267 1.73704 2.34347 -0.260327 0.0462048 0.000530889 0.662642 
36.7936 97.7018 2.52537 -3.04349 -2.16315 -85.7073 -5.93725 7.98991 0.692395 1.06462 22.3625 19.4275 -5.84541 -28.6052 -0.959606 -1.37356e-009 8.75196e-006 -1.47123e-008 0.409998 16.2762 -1.15969 -0.314946 -1.50665 -0.98434 36.6646 1.78119 0.150564 38.4589 -7.18923 4.67994 1.14485 23.5417 26.4736 -5.7969 9.69196 -0.727586 -43.7063 3.47609 -3.40683 -29.7343 -17.9799 1.27727 8.61652 34.5594 -37.4142 5.82328 9.61819 -0.917488 1.88717 -17.6098 -7.36737 -6.31983 -20.2515 -7.20746 4.24475 9.17374 -23.878 4.81747 2.39267 -0.523211 0.0462048 0.000530889 0.662642 
39.6816 97.6231 2.91606 -3.1676 -3.27175 -85.519 -7.3148 6.23116 1.49791 0.928822 22.6214 18.7547 -4.50504 -28.8152 -0.707098 -1.37356e-009 8.75196e-006 -1.47123e-008 -1.70247 16.7314 -0.971999 -0.21985 -1.58148 -1.1066 37.0142 1.78214 0.119102 38.9156 -8.57448 4.26882 0.609398 24.3862 27.3119 -5.92212 9.68679 -0.725187 -43.8235 3.49251 -3.42163 -29.0653 -17.7541 0.875502 8.98429 34.7372 -38.071 5.82328 9.61819 -0.917488 2.0192 -17.5534 -7.63277 -7.68189 -20.0385 -7.4925 3.64538 6.5207 -22.8601 8.73103 -0.295519 -0.678054 0.0462048 0.000530889 0.662642 
42.2066 97.8771 3.2713 -3.41474 -3.8547 -85.8065 -8.13179 4.5491 2.34081 0.829994 23.1869 18.2151 -3.96111 -27.89 -0.572345 -1.37356e-009 8.75196e-006 -1.47123e-008 -2.56147 16.896 -0.764224 -0.930722 -1.73243 -0.892429 37.4349 1.78356 0.0859001 39.5368 -9.44144 3.49756 0.414355 24.7221 26.923 -6.1323 9.67646 -0.681149 -44.0117 3.51985 -3.44738 -28.2631 -17.1383 0.669438 8.55627 34.6824 -36.9255 5.82328 9.61819 -0.917488 1.73937 -17.0434 -7.94649 -8.05655 -19.2185 -7.08883 2.94236 3.71763 -20.9692 11.8563 -4.52867 -0.481622 0.0462048 0.000530889 0.662642 
